<?xml version="1.0" encoding="UTF-8"?> <svg xmlns="http://www.w3.org/2000/svg" id="icons" viewBox="0 0 43 42"><defs><style> .cls-1 { stroke-linecap: round; } .cls-1, .cls-2 { fill: none; stroke: #007ef0; stroke-linejoin: round; stroke-width: 2.4px; } </style></defs><ellipse class="cls-2" cx="15.47" cy="19.37" rx="5.53" ry="5.72"></ellipse><line class="cls-1" x1="9.15" y1="38.14" x2="9.15" y2="33.25"></line><line class="cls-1" x1="21.78" y1="38.14" x2="21.78" y2="33.25"></line><path class="cls-1" d="m20.6,21.52h7.7v3.84l3.85-3.84h2.57c1.42,0,2.57-1.15,2.57-2.56V7.43c0-1.41-1.15-2.56-2.57-2.56h-16.68c-1.42,0-2.57,1.15-2.57,2.56v5.56"></path><circle class="cls-1" cx="21.24" cy="12.1" r=".64"></circle><circle class="cls-1" cx="26.37" cy="12.1" r=".64"></circle><circle class="cls-1" cx="31.5" cy="12.1" r=".64"></circle><path class="cls-1" d="m25.73,38.14v-5.72c0-4.06-4.6-6.53-10.26-6.53s-10.26,2.47-10.26,6.53v5.72"></path></svg> 