<?xml version="1.0" encoding="UTF-8"?> <svg xmlns="http://www.w3.org/2000/svg" width="43" height="43" viewBox="0 0 43 43" fill="none"><g clip-path="url(#clip0_579_1102)"><path d="M16.125 25.0833L26.875 14.3333" stroke="#007EF0" stroke-width="2.75" stroke-linecap="round" stroke-linejoin="round"></path><path d="M17.0208 16.1249C17.5156 16.1249 17.9167 15.7238 17.9167 15.2291C17.9167 14.7343 17.5156 14.3333 17.0208 14.3333C16.5261 14.3333 16.125 14.7343 16.125 15.2291C16.125 15.7238 16.5261 16.1249 17.0208 16.1249Z" fill="#007EF0" stroke="#007EF0" stroke-width="2.75" stroke-linecap="round" stroke-linejoin="round"></path><path d="M25.9779 25.0834C26.4726 25.0834 26.8737 24.6823 26.8737 24.1876C26.8737 23.6928 26.4726 23.2917 25.9779 23.2917C25.4831 23.2917 25.082 23.6928 25.082 24.1876C25.082 24.6823 25.4831 25.0834 25.9779 25.0834Z" fill="#007EF0" stroke="#007EF0" stroke-width="2.75" stroke-linecap="round" stroke-linejoin="round"></path><path d="M8.95703 37.625V8.95833C8.95703 8.00797 9.33456 7.09654 10.0066 6.42453C10.6786 5.75253 11.59 5.375 12.5404 5.375H30.457C31.4074 5.375 32.3188 5.75253 32.9908 6.42453C33.6628 7.09654 34.0404 8.00797 34.0404 8.95833V37.625L28.6654 34.0417L25.082 37.625L21.4987 34.0417L17.9154 37.625L14.332 34.0417L8.95703 37.625Z" stroke="#007EF0" stroke-width="2.75" stroke-linecap="round" stroke-linejoin="round"></path></g><defs><clipPath id="clip0_579_1102"><rect width="43" height="43" fill="white"></rect></clipPath></defs></svg> 