<?xml version="1.0" encoding="UTF-8"?> <svg xmlns="http://www.w3.org/2000/svg" width="43" height="43" viewBox="0 0 43 43" fill="none"><g clip-path="url(#clip0_579_1125)"><path d="M16.1237 8.95825H12.5404C11.59 8.95825 10.6786 9.33578 10.0066 10.0078C9.33456 10.6798 8.95703 11.5912 8.95703 12.5416V34.0416C8.95703 34.9919 9.33456 35.9034 10.0066 36.5754C10.6786 37.2474 11.59 37.6249 12.5404 37.6249H30.457C31.4074 37.6249 32.3188 37.2474 32.9908 36.5754C33.6628 35.9034 34.0404 34.9919 34.0404 34.0416V12.5416C34.0404 11.5912 33.6628 10.6798 32.9908 10.0078C32.3188 9.33578 31.4074 8.95825 30.457 8.95825H26.8737" stroke="#007EF0" stroke-width="2.75" stroke-linecap="round" stroke-linejoin="round"></path><path d="M23.2917 5.375H19.7083C17.7293 5.375 16.125 6.97931 16.125 8.95833C16.125 10.9374 17.7293 12.5417 19.7083 12.5417H23.2917C25.2707 12.5417 26.875 10.9374 26.875 8.95833C26.875 6.97931 25.2707 5.375 23.2917 5.375Z" stroke="#007EF0" stroke-width="2.75" stroke-linecap="round" stroke-linejoin="round"></path><path d="M25.0846 19.7083H20.6055C19.8927 19.7083 19.2091 19.9914 18.7051 20.4954C18.2011 20.9994 17.918 21.683 17.918 22.3958C17.918 23.1085 18.2011 23.7921 18.7051 24.2961C19.2091 24.8001 19.8927 25.0833 20.6055 25.0833H22.3971C23.1099 25.0833 23.7935 25.3664 24.2975 25.8704C24.8015 26.3744 25.0846 27.058 25.0846 27.7708C25.0846 28.4835 24.8015 29.1671 24.2975 29.6711C23.7935 30.1751 23.1099 30.4583 22.3971 30.4583H17.918" stroke="#007EF0" stroke-width="2.75" stroke-linecap="round" stroke-linejoin="round"></path><path d="M21.5 30.4584V32.2501M21.5 17.9167V19.7084" stroke="#007EF0" stroke-width="2.75" stroke-linecap="round" stroke-linejoin="round"></path></g><defs><clipPath id="clip0_579_1125"><rect width="43" height="43" fill="white"></rect></clipPath></defs></svg> 