<?xml version="1.0" encoding="UTF-8"?> <svg xmlns="http://www.w3.org/2000/svg" width="43" height="42" viewBox="0 0 43 42" fill="none"><g clip-path="url(#clip0_579_1131)"><path d="M17.9167 29.75C24.8432 29.75 30.4583 24.2655 30.4583 17.5C30.4583 10.7345 24.8432 5.25 17.9167 5.25C10.9901 5.25 5.375 10.7345 5.375 17.5C5.375 24.2655 10.9901 29.75 17.9167 29.75Z" stroke="#007EF0" stroke-width="2.75" stroke-linecap="round" stroke-linejoin="round"></path><path d="M37.625 36.75L26.875 26.25" stroke="#007EF0" stroke-width="2.75" stroke-linecap="round" stroke-linejoin="round"></path><path d="M21.4987 12.25H17.0195C16.3068 12.25 15.6232 12.5266 15.1192 13.0188C14.6152 13.5111 14.332 14.1788 14.332 14.875C14.332 15.5712 14.6152 16.2389 15.1192 16.7312C15.6232 17.2234 16.3068 17.5 17.0195 17.5H18.8112C19.524 17.5 20.2075 17.7766 20.7115 18.2688C21.2156 18.7611 21.4987 19.4288 21.4987 20.125C21.4987 20.8212 21.2156 21.4889 20.7115 21.9812C20.2075 22.4734 19.524 22.75 18.8112 22.75H14.332" stroke="#007EF0" stroke-width="2.75" stroke-linecap="round" stroke-linejoin="round"></path><path d="M17.918 22.75V24.5M17.918 10.5V12.25" stroke="#007EF0" stroke-width="2.75" stroke-linecap="round" stroke-linejoin="round"></path></g><defs><clipPath id="clip0_579_1131"><rect width="43" height="42" fill="white"></rect></clipPath></defs></svg> 