<?xml version="1.0" encoding="UTF-8"?> <svg xmlns="http://www.w3.org/2000/svg" width="25" height="26" viewBox="0 0 25 26" fill="none"><path d="M18.4144 4.71313H6.28018C5.16326 4.71313 4.25781 5.64066 4.25781 6.78483V19.215C4.25781 20.3591 5.16326 21.2867 6.28018 21.2867H18.4144C19.5313 21.2867 20.4367 20.3591 20.4367 19.215V6.78483C20.4367 5.64066 19.5313 4.71313 18.4144 4.71313Z" stroke="#007EF0" stroke-width="2" stroke-linecap="round" stroke-linejoin="round"></path><path d="M8.30273 11.9641V17.1433" stroke="#007EF0" stroke-width="2" stroke-linecap="round" stroke-linejoin="round"></path><path d="M8.30273 8.85645V8.86654" stroke="#007EF0" stroke-width="2" stroke-linecap="round" stroke-linejoin="round"></path><path d="M12.3477 17.1433V11.9641" stroke="#007EF0" stroke-width="2" stroke-linecap="round" stroke-linejoin="round"></path><path d="M16.3924 17.1433V14.0358C16.3924 13.4864 16.1793 12.9594 15.8 12.5709C15.4208 12.1824 14.9064 11.9641 14.37 11.9641C13.8337 11.9641 13.3193 12.1824 12.94 12.5709C12.5607 12.9594 12.3477 13.4864 12.3477 14.0358" stroke="#007EF0" stroke-width="2" stroke-linecap="round" stroke-linejoin="round"></path></svg> 